<svg width="618" height="564" viewBox="0 0 618 564" fill="none" xmlns="http://www.w3.org/2000/svg">
<path d="M471.445 35.15C499.542 35.0311 527.243 35.0166 555.307 37.0427C565.977 37.8128 575.217 38.2769 585.863 39.8078C583.944 43.8722 581.128 47.9337 578.874 51.8654C555.672 92.3621 533.097 133.23 511.268 174.486C508.311 180.075 505.414 186.757 501.956 191.869C494.309 192.105 487.463 191.322 479.87 190.821C473.153 190.361 466.424 190.159 459.692 190.215C435.409 190.043 411.13 190.738 386.899 192.298C358.7 194.384 330.235 198.632 302.464 203.713C300.754 204.025 299.512 208.386 299.064 209.781C304.326 209.358 309.368 208.734 314.595 208.065C349.36 203.612 384.283 200.962 419.247 198.654C432.778 197.761 447.175 196.706 460.724 197.138C459.218 202.676 454.933 211.687 452.552 217.189C447.211 229.419 441.942 241.682 436.752 253.977L415.442 306.579L407.931 325.222C406.202 329.546 403.927 336.457 401.275 339.975C397.134 340.938 388.8 341.342 384.24 341.704C375.049 342.432 365.866 343.28 356.696 344.245C327.193 347.583 297.849 352.197 268.746 358.072L254.376 361.078C239.726 364.104 242.765 362.849 237.961 377.277C227.846 407.652 218.162 439.329 213.762 471.095C212.81 477.973 212.122 484.886 211.7 491.818C211.367 497.138 211.973 504.048 211.133 509.218C210.869 510.844 208.026 511.958 206.54 512.667C200.712 515.392 192.69 518.545 186.652 520.878C149.634 535.073 109.097 546.697 69.1137 542.822C46.596 541.005 22.7352 532.016 10.8471 511.553C-2.49309 488.592 0.424257 462.064 5.37278 437.228C11.6933 405.51 22.7417 374.989 34.0978 344.791C42.1318 322.826 50.5925 301.021 59.4744 279.386C63.6881 268.826 68.3575 258.453 72.5161 247.87C73.5098 245.342 74.546 242.81 75.1733 240.16L75.2705 239.739C69.2384 240.617 62.0758 243.682 56.2736 245.885C49.2315 248.531 42.2199 251.256 35.2399 254.063C36.4295 248.271 38.6474 242.152 40.3137 236.388C44.7151 221.166 49.6772 206.018 53.8729 190.735L69.9614 132.053C71.4005 126.516 72.7964 120.968 74.1486 115.409C74.8562 112.554 75.7929 108.126 76.8786 105.626C82.0794 101.674 118.117 90.0641 124.977 87.9173C209.141 61.9202 296.002 45.6294 383.866 39.3627C397.593 38.1477 411.338 37.1685 425.098 36.4253C440.775 35.6214 455.832 35.571 471.445 35.15Z" fill="#0D1114"/>
<path d="M104.586 118.396C116.13 114.038 126.626 109.794 138.411 105.959C168.56 96.2101 199.255 88.2369 230.337 82.0797C309.815 66.0414 390.683 57.8904 471.765 57.7456C487.71 57.5724 503.658 57.8222 519.594 58.4949C523.17 58.6337 533.577 58.8443 536.507 59.421C536.67 60.1923 536.465 60.1337 535.88 61.0508C531.878 67.6839 527.171 74.6641 523.001 81.2812C515.611 93.1867 508.356 105.175 501.238 117.243C495.903 126.271 490.263 135.587 485.489 144.915C476.841 143.76 466.276 143.56 457.504 143.068C410.065 140.48 362.487 142.418 315.415 148.853C304.64 150.28 293.896 151.934 283.189 153.814C275.834 155.138 267.784 156.975 260.502 158.018C257.649 165.476 254.342 172.499 251.233 179.8C244.877 194.713 238.619 209.669 232.46 224.665C230.863 228.629 225.164 242.138 224.406 245.717C258.811 238.07 293.565 232.094 328.548 227.809C337.251 226.753 410.062 219.119 413.698 220.464C413.924 221.274 413.927 220.856 413.453 221.737C404.346 240.924 394.898 259.869 386.884 279.571C384.832 284.615 380.085 294.843 378.688 299.626C367.779 299.384 348.25 301.175 337.208 302.264C304.166 305.571 271.295 310.411 238.702 316.766C229.773 318.435 220.924 320.593 212.055 322.503C208.707 323.224 201.555 325.168 198.619 325.412C194.972 337.03 190.947 348.6 187.357 360.218C183.111 374.02 179.323 387.959 175.996 402.012C170.511 424.783 165.625 448.161 165.49 471.747C165.474 474.662 165.167 478.286 165.383 481.132C142.234 490.348 114.656 499.576 89.9715 503.143C84.8283 503.885 78.913 503.952 73.7092 504.021C57.2534 505.186 40.3969 497.587 36.6213 480.29C30.6531 464.236 37.1681 429.744 41.527 413.476C41.7216 411.931 43.3903 406.297 43.8207 404.719C46.1891 396.019 49.0552 387.464 51.8948 378.912C59.3286 356.937 67.3363 335.162 75.9099 313.61C88.4401 281.305 101.918 249.376 116.326 217.864C119.865 209.618 123.968 201.447 127.652 193.245C129.291 189.596 131.251 186.108 132.693 182.352C130.927 182.61 124.506 185.441 122.481 186.196C110.011 190.847 97.1576 197.568 84.7601 202.067L80.289 204.524C80.8294 202.299 81.4354 200.05 82.1167 197.863C89.2895 174.84 95.4366 151.568 101.972 128.367C102.868 125.185 104.018 121.63 104.586 118.396Z" fill="#F92219"/>
<path d="M132.693 182.352L133.452 181.616C134.518 182.77 130.883 196.243 130.245 198.455C131.221 203.644 129.766 211.654 129.311 216.964C128.698 224.111 127.262 231.496 126.616 238.629C125.018 256.287 124.99 274.399 127.011 292.023C128.04 300.226 130.102 308.453 130.564 316.712C130.585 325.343 128.976 336.858 128.149 345.772C127.14 356.651 127.122 364.986 127.085 375.873C126.957 403.086 132.084 431.585 145.388 455.573C148.911 461.928 153.377 468.724 158.557 473.817C160.446 476.244 162.405 478.673 164.876 480.532C165.216 480.788 165.098 480.698 165.383 481.132C142.234 490.348 114.656 499.576 89.9715 503.143C84.8283 503.885 78.913 503.952 73.7092 504.021C57.2534 505.186 40.3969 497.587 36.6213 480.29C30.6531 464.236 37.1681 429.744 41.527 413.476C41.7216 411.931 43.3903 406.297 43.8207 404.719C46.1891 396.019 49.0552 387.464 51.8948 378.912C59.3286 356.937 67.3363 335.162 75.9099 313.61C88.4401 281.305 101.918 249.376 116.326 217.864C119.865 209.618 123.968 201.447 127.652 193.245C129.291 189.596 131.251 186.108 132.693 182.352Z" fill="#FE3B1A"/>
<path d="M116.326 217.864C118.294 218.343 120.19 218.928 121.345 220.64C121.663 223.12 114.924 238.19 113.912 241.737C113.401 243.532 109.275 251.087 109.954 252.238C106.081 262.328 101.877 272.12 98.0652 282.343C87.1175 312.041 77.2246 342.115 68.4049 372.512C60.86 398.901 52.9751 427.593 53.0161 455.153C53.0454 475.036 55.3291 493.019 73.7092 504.021C57.2534 505.186 40.3969 497.587 36.6213 480.29C30.6531 464.236 37.1681 429.744 41.527 413.476C41.7216 411.931 43.3903 406.297 43.8207 404.719C46.1891 396.019 49.0552 387.464 51.8948 378.912C59.3286 356.937 67.3363 335.162 75.9099 313.61C88.4401 281.305 101.918 249.376 116.326 217.864Z" fill="#FCA86A"/>
<path d="M41.527 413.476C42.5831 415.909 36.8829 428.254 40.3438 430.52C40.7985 430.93 42.6009 430.454 42.9552 430.076C43.9749 428.99 46.901 428.682 47.1801 427.406C48.3443 422.077 49.1669 416.995 50.5942 411.726C50.7617 413.371 47.6134 426.944 47.1014 429.723C44.5141 443.768 44.196 458.135 45.735 472.33C46.1152 475.833 47.344 479.346 47.9098 482.747L47.7378 482.84C46.461 480.242 47.7405 478.92 45.9142 477.288C43.1351 478.83 40.5807 474.355 36.9264 474.901C35.4031 476.615 37.0746 477.737 36.8178 480.013L36.6213 480.29C30.6531 464.236 37.1681 429.744 41.527 413.476Z" fill="#FCA86A"/>
<path d="M132.693 182.352L133.452 181.616C134.518 182.77 130.883 196.243 130.245 198.455C124.06 215.764 117.476 235.712 109.954 252.238C109.275 251.087 113.401 243.532 113.912 241.738C114.925 238.19 121.663 223.12 121.345 220.64C120.19 218.928 118.294 218.343 116.326 217.864C119.866 209.618 123.968 201.447 127.652 193.245C129.291 189.596 131.251 186.108 132.693 182.352Z" fill="#FF9E67"/>
<path d="M409.516 222.789C410.457 222.661 410.852 221.825 413.453 221.737C404.346 240.924 394.898 259.869 386.884 279.571C384.832 284.615 380.085 294.843 378.688 299.626C367.779 299.383 348.25 301.175 337.208 302.264C304.166 305.571 271.295 310.411 238.702 316.766C229.773 318.435 220.924 320.593 212.055 322.503C208.707 323.224 201.555 325.168 198.619 325.412C194.972 337.03 190.947 348.6 187.357 360.218C183.111 374.02 179.323 387.959 175.996 402.012C170.511 424.783 165.625 448.161 165.49 471.747C165.474 474.662 165.167 478.286 165.384 481.132C165.098 480.698 165.216 480.788 164.876 480.532C162.405 478.673 160.446 476.243 158.557 473.817C153.377 468.723 148.911 461.928 145.388 455.573C132.084 431.585 126.957 403.086 127.085 375.873C127.214 375.14 127.288 374.44 127.778 373.885C132.534 368.501 135.904 362.173 139.398 355.923C148.125 340.316 157.521 327.241 172.209 316.67C175.156 314.548 180.855 309.85 184.322 310.408C184.533 309.768 184.787 309.114 185.02 308.48C189.124 305.942 193.264 304.306 197.372 302.007C214.181 292.598 230.868 288.858 249.446 284.883C255.15 283.614 260.831 282.243 266.486 280.768C279.356 277.444 291.271 273.209 303.768 269.054C325.699 261.762 347.519 253.602 368.178 243.189C373.661 240.425 380.209 237.433 385.037 233.642C385.837 233.158 388.423 232.291 389.434 231.917C394.971 229.866 400.427 226.977 406.024 225.172L409.516 222.789Z" fill="#CC1D11"/>
<path d="M406.024 225.172C405.134 227.729 398.486 234.057 396.151 236.297C385.399 246.612 378.893 257.82 371.835 270.752C369.463 275.096 365.598 281.792 363.669 286.311C324.821 286.51 286.063 290.121 247.844 297.101C239.968 298.549 232.106 300.068 224.257 301.658C216.771 303.22 190.889 309.817 185.02 308.48C189.124 305.942 193.264 304.307 197.372 302.007C214.181 292.598 230.868 288.858 249.446 284.883C255.15 283.614 260.831 282.243 266.486 280.769C279.356 277.444 291.271 273.209 303.767 269.054C325.699 261.762 347.519 253.602 368.178 243.189C373.661 240.425 380.209 237.433 385.037 233.642C385.837 233.158 388.423 232.291 389.434 231.917C394.971 229.866 400.427 226.977 406.024 225.172Z" fill="#FA2B1B"/>
<path d="M127.085 375.873C127.214 375.14 127.288 374.44 127.778 373.885C132.534 368.501 135.904 362.173 139.398 355.924C148.125 340.316 157.521 327.241 172.209 316.67C175.156 314.548 180.855 309.85 184.322 310.408C182.453 315.074 177.528 330.065 175.746 333.186C173.635 339.785 171.458 346.149 169.45 352.8L169.34 353.334C168.332 358.129 166.098 364.445 164.859 369.609C159.674 391.218 153.72 418.401 154.254 440.56C154.403 447.85 155.121 455.12 156.401 462.302C156.72 464.122 158.507 472.589 158.557 473.817C153.377 468.724 148.911 461.928 145.388 455.573C132.084 431.585 126.957 403.087 127.085 375.873Z" fill="#FA2B1B"/>
<path d="M169.45 352.8L168.832 352.474C169.825 351.415 172.359 337.253 175.334 333.137L175.746 333.185C173.635 339.785 171.458 346.149 169.45 352.8Z" fill="#F92219"/>
<path d="M104.586 118.396C116.13 114.038 126.626 109.794 138.411 105.959C168.56 96.2101 199.255 88.2369 230.338 82.0797C309.815 66.0414 390.683 57.8904 471.765 57.7456C487.71 57.5724 503.658 57.8222 519.594 58.4949C523.17 58.6337 533.577 58.8443 536.507 59.421C536.67 60.1923 536.465 60.1337 535.88 61.0508L532.277 61.4223C531.374 60.9452 526.308 61.5436 524.763 61.6033C519.02 61.7754 513.272 61.9054 507.527 61.9935C441.936 63.4671 374.306 65.8637 309.764 78.0333C303.74 79.1236 297.707 80.1764 291.669 81.1919C288.784 81.6868 284.713 82.1804 281.985 83.0438C277.994 83.6286 274.011 84.6576 270.044 85.4027C233.028 92.3554 196.232 100.39 161.542 115.455C155.22 117.632 146.182 122.813 140.909 126.886C130.846 130.945 116.886 148.947 112.954 159.044C112.223 160.922 109.982 167.046 110.087 168.886L110.486 169.273C110.017 170.234 104.584 174.455 103.505 175.994C98.0388 183.789 89.8258 192.644 85.3631 200.956L84.7602 202.067L80.2891 204.524C80.8295 202.299 81.4354 200.05 82.1168 197.863C89.2896 174.84 95.4367 151.568 101.972 128.367C102.868 125.185 104.018 121.63 104.586 118.396Z" fill="#FA2B1B"/>
<path d="M281.985 83.0438C284.713 82.1804 288.784 81.6867 291.669 81.1918C297.707 80.1764 303.74 79.1235 309.763 78.0332C374.306 65.8636 441.936 63.467 507.526 61.9935C513.272 61.9054 519.02 61.7753 524.763 61.6033C526.308 61.5436 531.374 60.9452 532.277 61.4223C528.342 63.5114 524.968 64.567 521.48 66.3145C520.252 65.5154 520.089 65.1195 518.501 65.4777C516.594 65.908 514.621 66.9572 512.789 67.7289C505.257 70.2718 503.453 69.6807 495.704 69.2854C491.594 69.1046 487.478 69.0159 483.362 69.0192C467.882 69.0566 452.404 69.5654 436.957 70.544C399.289 73.065 361.796 77.6802 324.64 84.3691C273.874 93.3844 224.016 105.539 176.902 126.887C173.516 126.861 168.048 131.129 166.032 131.124C162.721 131.116 159.954 128.548 155.029 129.298C152.578 131.245 148.974 132.128 146.127 130.968C145.189 130.585 142.445 130.035 141.973 129.176C142.974 129.163 145.327 129.064 146.188 128.694C148.97 127.497 163.392 122.356 165.045 121.287L164.957 120.88L162.641 121.793C162.088 121.435 162.347 121.644 161.865 121.161C160.389 120.872 157.852 119.944 156.786 118.914C157.166 118.2 160.245 116.469 161.285 115.658L161.542 115.455C196.232 100.39 233.028 92.3553 270.044 85.4027C274.011 84.6576 277.994 83.6286 281.985 83.0438Z" fill="#FD7F67"/>
<path d="M281.985 83.0438C284.795 83.2188 287.751 82.1246 290.033 82.3533L289.849 83.6693C291.408 84.6069 310.964 78.7165 312.093 81.592C310.66 83.7393 293.724 88.7876 290.252 89.1328C283.877 89.7668 276.599 92.5856 270.427 93.1864C250.355 95.141 229.846 100.186 210.724 106.425C203.184 108.885 168.455 116.867 164.957 120.88L162.641 121.793C162.088 121.435 162.347 121.644 161.865 121.161C160.389 120.873 157.852 119.944 156.786 118.914C157.166 118.2 160.245 116.469 161.285 115.658L161.542 115.455C196.232 100.39 233.028 92.3554 270.044 85.4027C274.011 84.6576 277.994 83.6286 281.985 83.0438Z" fill="#FEE5E0"/>
<path d="M216.201 251.692C237.013 247.461 258.156 242.363 279.087 239.162C319.942 232.913 360.954 228.146 402.017 223.554C403.806 223.354 408.224 222.294 409.516 222.789L406.024 225.172C400.427 226.977 394.971 229.866 389.434 231.917C388.423 232.291 385.837 233.158 385.037 233.642C381.914 233.512 378.95 233.913 375.839 234.074C371.319 234.308 366.817 234.553 362.299 234.913C339.049 236.767 315.907 240.085 292.832 243.425C285.438 244.496 277.856 245.926 270.477 246.811C258.19 248.284 245.683 249.401 233.392 250.73C229.955 251.101 216.846 252.36 213.843 253.217C213.132 253.15 212.422 253.072 211.713 252.985L211.827 252.764C213.322 252.467 214.731 252.082 216.201 251.692Z" fill="#FDA18F"/>
<path d="M140.909 126.886C146.182 122.813 155.22 117.632 161.542 115.455L161.285 115.658C160.245 116.469 157.166 118.2 156.786 118.914C157.852 119.944 160.389 120.872 161.865 121.161C162.347 121.644 162.088 121.435 162.641 121.793L164.956 120.88L165.045 121.287C163.392 122.356 148.97 127.497 146.188 128.694C145.327 129.064 142.974 129.163 141.972 129.176C142.445 130.035 145.189 130.585 146.127 130.968C148.974 132.128 152.578 131.245 155.029 129.298C159.954 128.548 162.72 131.116 166.032 131.124C168.048 131.129 173.516 126.861 176.902 126.887C159.898 135.675 145.103 142.939 129.289 154.31C122.34 159.307 116.767 164.634 110.486 169.273L110.087 168.886C109.982 167.046 112.223 160.922 112.954 159.044C116.886 148.947 130.846 130.945 140.909 126.886Z" fill="#FD7F67"/>
<path d="M140.909 126.886C146.182 122.813 155.22 117.632 161.542 115.455L161.285 115.658C160.245 116.469 157.166 118.2 156.786 118.914C157.852 119.944 160.389 120.872 161.865 121.161C162.347 121.644 162.088 121.435 162.641 121.793C160.946 122.739 157.586 123.767 155.729 124.478C153.037 125.509 143.132 130.371 140.567 127.78L140.964 127.257L140.909 126.886Z" fill="#FEE5E0"/>
<path d="M512.789 67.7289C514.621 66.9573 516.594 65.908 518.501 65.4777C520.089 65.1195 520.252 65.5154 521.48 66.3145C519.573 67.1109 515.589 68.6656 513.622 69.0389C513.236 68.4459 513.35 68.6749 513.19 67.9697L512.789 67.7289Z" fill="#FD7F67"/>
<path d="M213.843 253.217C211.84 253.819 207.572 254.267 205.696 253.352L205.657 252.7L205.829 252.615L205.856 253.427L206.149 252.497C208.993 251.658 213.27 251.231 216.201 251.692C214.732 252.082 213.322 252.467 211.827 252.764L211.713 252.985C212.422 253.072 213.132 253.15 213.843 253.217Z" fill="#FA2B1B"/>
</svg>
